<svg width="122" height="43" viewBox="0 0 122 43" fill="none" xmlns="http://www.w3.org/2000/svg">
<path d="M15.3555 29.4023L11.8398 42.5859H0.121094L11.4004 0.398438H49.1055L52.6211 5.17383L47.4062 24.627L41.3418 29.4023H15.3555ZM39.1152 11.8242H20.1016L18.4609 17.9766H37.4746L39.1152 11.8242ZM28.334 42.5859L23.5293 36.0527L35.248 29.4609L44.8574 42.5859H28.334ZM111.625 14.7539H99.9062L100.697 11.7949L81.6836 11.8242L76.4688 31.1309L87.4551 31.1602H95.5117L96.3027 28.2305H108.021L105.443 37.8105L99.4082 42.5859H66.5078L62.9629 37.8105L71.7227 5.20312L77.7578 0.398438H110.688L114.203 5.17383L111.625 14.7539Z" fill="white"/>
<path d="M58.7441 42.5859H46.9961L50.0723 31.1602H61.791L58.7441 42.5859ZM118.861 42.5859H107.113L110.189 31.1602H121.908L118.861 42.5859Z" fill="#FB2F38"/>
<path d="M15.3555 29.4023V28.9023H14.9713L14.8724 29.2735L15.3555 29.4023ZM11.8398 42.5859V43.0859H12.224L12.323 42.7148L11.8398 42.5859ZM0.121094 42.5859L-0.36194 42.4568L-0.530149 43.0859H0.121094V42.5859ZM11.4004 0.398438V-0.101562H11.0165L10.9174 0.269293L11.4004 0.398438ZM49.1055 0.398438L49.5081 0.102007L49.3583 -0.101562H49.1055V0.398438ZM52.6211 5.17383L53.104 5.30329L53.1663 5.07104L53.0237 4.8774L52.6211 5.17383ZM47.4062 24.627L47.7156 25.0198L47.8462 24.917L47.8892 24.7564L47.4062 24.627ZM41.3418 29.4023V29.9023H41.515L41.6511 29.7952L41.3418 29.4023ZM39.1152 11.8242L39.5984 11.953L39.766 11.3242H39.1152V11.8242ZM20.1016 11.8242V11.3242H19.7174L19.6184 11.6954L20.1016 11.8242ZM18.4609 17.9766L17.9778 17.8477L17.8101 18.4766H18.4609V17.9766ZM37.4746 17.9766V18.4766H37.8587L37.9577 18.1054L37.4746 17.9766ZM28.334 42.5859L27.9312 42.8822L28.081 43.0859H28.334V42.5859ZM23.5293 36.0527L23.2842 35.6169L22.7918 35.8939L23.1265 36.349L23.5293 36.0527ZM35.248 29.4609L35.6515 29.1656L35.3895 28.8077L35.0029 29.0252L35.248 29.4609ZM44.8574 42.5859V43.0859H45.8432L45.2609 42.2906L44.8574 42.5859ZM14.8724 29.2735L11.3567 42.4571L12.323 42.7148L15.8386 29.5312L14.8724 29.2735ZM11.8398 42.0859H0.121094V43.0859H11.8398V42.0859ZM0.604128 42.7151L11.8834 0.527582L10.9174 0.269293L-0.36194 42.4568L0.604128 42.7151ZM11.4004 0.898438H49.1055V-0.101562H11.4004V0.898438ZM48.7028 0.694868L52.2184 5.47026L53.0237 4.8774L49.5081 0.102007L48.7028 0.694868ZM52.1381 5.04436L46.9233 24.4975L47.8892 24.7564L53.104 5.30329L52.1381 5.04436ZM47.0969 24.2341L41.0325 29.0095L41.6511 29.7952L47.7156 25.0198L47.0969 24.2341ZM41.3418 28.9023H15.3555V29.9023H41.3418V28.9023ZM39.1152 11.3242H20.1016V12.3242H39.1152V11.3242ZM19.6184 11.6954L17.9778 17.8477L18.9441 18.1054L20.5847 11.953L19.6184 11.6954ZM18.4609 18.4766H37.4746V17.4766H18.4609V18.4766ZM37.9577 18.1054L39.5984 11.953L38.6321 11.6954L36.9915 17.8477L37.9577 18.1054ZM28.7368 42.2897L23.9321 35.7565L23.1265 36.349L27.9312 42.8822L28.7368 42.2897ZM23.7744 36.4885L35.4932 29.8967L35.0029 29.0252L23.2842 35.6169L23.7744 36.4885ZM34.8446 29.7563L44.454 42.8813L45.2609 42.2906L35.6515 29.1656L34.8446 29.7563ZM44.8574 42.0859H28.334V43.0859H44.8574V42.0859ZM58.7441 42.5859V43.0859H59.1283L59.2273 42.7148L58.7441 42.5859ZM46.9961 42.5859L46.5133 42.456L46.3437 43.0859H46.9961V42.5859ZM50.0723 31.1602V30.6602H49.6891L49.5895 31.0302L50.0723 31.1602ZM61.791 31.1602L62.2741 31.289L62.4418 30.6602H61.791V31.1602ZM58.7441 42.0859H46.9961V43.0859H58.7441V42.0859ZM47.4789 42.7159L50.5551 31.2901L49.5895 31.0302L46.5133 42.456L47.4789 42.7159ZM50.0723 31.6602H61.791V30.6602H50.0723V31.6602ZM61.3079 31.0313L58.261 42.4571L59.2273 42.7148L62.2741 31.289L61.3079 31.0313ZM111.625 14.7539V15.2539H112.008L112.108 14.8838L111.625 14.7539ZM99.9062 14.7539L99.4232 14.6248L99.255 15.2539H99.9062V14.7539ZM100.697 11.7949L101.18 11.924L101.349 11.2939L100.696 11.2949L100.697 11.7949ZM81.6836 11.8242L81.6828 11.3242L81.3006 11.3248L81.2009 11.6938L81.6836 11.8242ZM76.4688 31.1309L75.986 31.0005L75.8162 31.6291L76.4674 31.6309L76.4688 31.1309ZM87.4551 31.1602L87.4537 31.6602H87.4551V31.1602ZM95.5117 31.1602V31.6602H95.8946L95.9944 31.2905L95.5117 31.1602ZM96.3027 28.2305V27.7305H95.9198L95.82 28.1001L96.3027 28.2305ZM108.021 28.2305L108.504 28.3604L108.674 27.7305H108.021V28.2305ZM105.443 37.8105L105.754 38.2026L105.883 38.1001L105.926 37.9405L105.443 37.8105ZM99.4082 42.5859V43.0859H99.5821L99.7185 42.978L99.4082 42.5859ZM66.5078 42.5859L66.1063 42.884L66.2563 43.0859H66.5078V42.5859ZM62.9629 37.8105L62.48 37.6808L62.4173 37.9144L62.5614 38.1086L62.9629 37.8105ZM71.7227 5.20312L71.4112 4.81195L71.2825 4.91446L71.2398 5.0734L71.7227 5.20312ZM77.7578 0.398438V-0.101562H77.5831L77.4464 0.00726318L77.7578 0.398438ZM110.688 0.398438L111.09 0.102007L110.94 -0.101562H110.688V0.398438ZM114.203 5.17383L114.686 5.30376L114.749 5.07128L114.606 4.8774L114.203 5.17383ZM111.625 14.2539H99.9062V15.2539H111.625V14.2539ZM100.389 14.883L101.18 11.924L100.214 11.6658L99.4232 14.6248L100.389 14.883ZM100.696 11.2949L81.6828 11.3242L81.6844 12.3242L100.698 12.2949L100.696 11.2949ZM81.2009 11.6938L75.986 31.0005L76.9515 31.2612L82.1663 11.9546L81.2009 11.6938ZM76.4674 31.6309L87.4537 31.6602L87.4564 30.6602L76.4701 30.6309L76.4674 31.6309ZM87.4551 31.6602H95.5117V30.6602H87.4551V31.6602ZM95.9944 31.2905L96.7854 28.3608L95.82 28.1001L95.029 31.0298L95.9944 31.2905ZM96.3027 28.7305H108.021V27.7305H96.3027V28.7305ZM107.539 28.1005L104.961 37.6806L105.926 37.9405L108.504 28.3604L107.539 28.1005ZM105.133 37.4184L99.0979 42.1938L99.7185 42.978L105.754 38.2026L105.133 37.4184ZM99.4082 42.0859H66.5078V43.0859H99.4082V42.0859ZM66.9093 42.2879L63.3644 37.5125L62.5614 38.1086L66.1063 42.884L66.9093 42.2879ZM63.4458 37.9403L72.2055 5.33285L71.2398 5.0734L62.48 37.6808L63.4458 37.9403ZM72.0341 5.5943L78.0692 0.789612L77.4464 0.00726318L71.4112 4.81195L72.0341 5.5943ZM77.7578 0.898438H110.688V-0.101562H77.7578V0.898438ZM110.285 0.694868L113.8 5.47026L114.606 4.8774L111.09 0.102007L110.285 0.694868ZM113.72 5.04389L111.142 14.624L112.108 14.8838L114.686 5.30376L113.72 5.04389ZM118.861 42.5859V43.0859H119.245L119.344 42.7148L118.861 42.5859ZM107.113 42.5859L106.63 42.456L106.461 43.0859H107.113V42.5859ZM110.189 31.1602V30.6602H109.806L109.707 31.0302L110.189 31.1602ZM121.908 31.1602L122.391 31.289L122.559 30.6602H121.908V31.1602ZM118.861 42.0859H107.113V43.0859H118.861V42.0859ZM107.596 42.7159L110.672 31.2901L109.707 31.0302L106.63 42.456L107.596 42.7159ZM110.189 31.6602H121.908V30.6602H110.189V31.6602ZM121.425 31.0313L118.378 42.4571L119.344 42.7148L122.391 31.289L121.425 31.0313Z" fill="black"/>
</svg>
